<svg width="24" height="25" viewBox="0 0 24 25" fill="none" xmlns="http://www.w3.org/2000/svg">
<rect opacity="0.01" y="0.328125" width="24" height="24" fill="#D8D8D8"/>
<path fill-rule="evenodd" clip-rule="evenodd" d="M4.41753 5.73393L9.41753 2.71806C11.0059 1.76 12.9941 1.76 14.5825 2.71806L19.5825 5.73393C21.0828 6.63891 22 8.26322 22 10.0154V17.3282C22 20.0896 19.7614 22.3282 17 22.3282H7C4.23858 22.3282 2 20.0896 2 17.3282V10.0154C2 8.26322 2.91717 6.63891 4.41753 5.73393ZM18.5495 7.44651L13.5495 4.43064C12.5965 3.8558 11.4035 3.8558 10.4505 4.43064L5.45052 7.44651C4.5503 7.9895 4 8.96409 4 10.0154V17.3282C4 18.9851 5.34315 20.3282 7 20.3282H17C18.6569 20.3282 20 18.9851 20 17.3282V10.0154C20 8.96409 19.4497 7.9895 18.5495 7.44651Z" fill="#888A9C"/>
<path d="M12 10.3281C12.5128 10.3281 12.9355 10.7142 12.9933 11.2115L13 11.3281V15.3281C13 15.8804 12.5523 16.3281 12 16.3281C11.4872 16.3281 11.0645 15.9421 11.0067 15.4447L11 15.3281V11.3281C11 10.7758 11.4477 10.3281 12 10.3281Z" fill="#888A9C"/>
</svg>
