<svg width="24" height="25" viewBox="0 0 24 25" fill="none" xmlns="http://www.w3.org/2000/svg">
<rect opacity="0.01" y="0.328125" width="24" height="24" fill="#D8D8D8"/>
<path fill-rule="evenodd" clip-rule="evenodd" d="M6 2.32812H18C20.7614 2.32812 23 4.5667 23 7.32812V15.1605C22.9976 17.9204 20.7612 20.1579 18.0005 20.1616L14.264 20.1631L9.98923 22.5966C9.07495 23.117 7.92382 22.8376 7.34431 21.9805L7.26178 21.8477C7.09021 21.5462 7 21.2053 7 20.8584V20.1631L5.99821 20.1622C3.31154 20.1574 1.12122 18.0363 1.00486 15.3765L1 15.1597V7.32812C1 4.5667 3.23858 2.32812 6 2.32812ZM18 4.32812H6C4.34315 4.32812 3 5.67127 3 7.32812L3 15.1585C3.00191 16.8155 4.34478 18.1593 6.00064 18.1622L8.00064 18.1635C8.55267 18.1638 9 18.6115 9 19.1635V20.8584L13.5054 18.2944C13.656 18.2087 13.8263 18.1636 13.9995 18.1635L17.9987 18.1616C19.6556 18.1594 20.9986 16.8158 21 15.1597V7.32812C21 5.67127 19.6569 4.32812 18 4.32812Z" fill="#888A9C"/>
<path d="M14.5 10.8281C15.0523 10.8281 15.5 11.2758 15.5 11.8281C15.5 12.341 15.114 12.7636 14.6166 12.8214L14.5 12.8281H9.5C8.94772 12.8281 8.5 12.3804 8.5 11.8281C8.5 11.3153 8.88604 10.8926 9.38338 10.8349L9.5 10.8281H14.5Z" fill="#888A9C"/>
</svg>
