<svg width="24" height="25" viewBox="0 0 24 25" fill="none" xmlns="http://www.w3.org/2000/svg">
<rect opacity="0.01" y="0.328125" width="24" height="24" fill="#D8D8D8"/>
<path d="M18 2.32812H6C3.23858 2.32813 1 4.5667 1 7.32812V15.1597L1.00486 15.3765C1.12122 18.0363 3.31154 20.1574 5.99821 20.1622L7 20.1631V20.8584C7 21.2053 7.09021 21.5462 7.26178 21.8477L7.34431 21.9805C7.92382 22.8376 9.07495 23.117 9.98923 22.5966L14.264 20.1631L18.0005 20.1616C20.7612 20.1579 22.9976 17.9204 23 15.1605V7.32812C23 4.5667 20.7614 2.32812 18 2.32812Z" fill="#007EF2"/>
<path d="M9.5 11.8281H14.5" stroke="white" stroke-width="2" stroke-linecap="round"/>
</svg>
