<svg width="24" height="25" viewBox="0 0 24 25" fill="none" xmlns="http://www.w3.org/2000/svg">
<rect opacity="0.01" y="0.328125" width="24" height="24" fill="#D8D8D8"/>
<path fill-rule="evenodd" clip-rule="evenodd" d="M12 1.82812H19.0114C20.3921 1.82812 21.5114 2.94741 21.5114 4.32812C21.5114 4.56042 21.479 4.79157 21.4153 5.01449L20.912 6.77612L21.0493 6.9997C21.9293 8.4909 22.4304 10.183 22.4932 11.9487L22.5 12.3281C22.5 18.1271 17.799 22.8281 12 22.8281C6.20101 22.8281 1.5 18.1271 1.5 12.3281C1.5 6.64043 6.0288 1.99088 11.7156 1.832L12 1.82812ZM12.014 3.82803L11.7575 3.83151C7.16634 3.95986 3.5 7.72396 3.5 12.3281C3.5 17.0225 7.30558 20.8281 12 20.8281C16.6944 20.8281 20.5 17.0225 20.5 12.3281C20.5 10.581 19.9729 8.91537 19.0028 7.50878C18.8332 7.26287 18.7824 6.95402 18.8643 6.66676L19.4922 4.46549C19.5049 4.42081 19.5114 4.37458 19.5114 4.32812C19.5114 4.05198 19.2875 3.82812 19.0114 3.82812L12.014 3.82803Z" fill="#888A9C"/>
<path d="M8 8.32812C8.51284 8.32812 8.93551 8.71417 8.99327 9.2115L9 9.32812V11.3281C9 11.8804 8.55228 12.3281 8 12.3281C7.48716 12.3281 7.06449 11.9421 7.00673 11.4447L7 11.3281V9.32812C7 8.77584 7.44772 8.32812 8 8.32812Z" fill="#888A9C"/>
<path d="M13 8.32812C13.5128 8.32812 13.9355 8.71417 13.9933 9.2115L14 9.32812V11.3281C14 11.8804 13.5523 12.3281 13 12.3281C12.4872 12.3281 12.0645 11.9421 12.0067 11.4447L12 11.3281V9.32812C12 8.77584 12.4477 8.32812 13 8.32812Z" fill="#888A9C"/>
</svg>
