<svg width="24" height="25" viewBox="0 0 24 25" fill="none" xmlns="http://www.w3.org/2000/svg">
<rect opacity="0.01" y="0.328125" width="24" height="24" fill="#D8D8D8"/>
<path fill-rule="evenodd" clip-rule="evenodd" d="M5.86364 2.32812H8.84591C9.61313 2.32812 10.3642 2.54877 11.0095 2.96375L12 3.60074L12.9905 2.96375C13.6358 2.54877 14.3869 2.32812 15.1541 2.32812H18.1364C20.8225 2.32812 23 4.50565 23 7.19176V15.4281C23 18.1895 20.7614 20.4281 18 20.4281L15.041 20.4271L13.7149 21.3522C12.7416 22.0302 11.4667 22.0679 10.4599 21.4652L10.2851 21.3522L8.958 20.4271L6 20.4281C3.31125 20.4281 1.11818 18.3058 1.00462 15.645L1 15.4281V7.19176C1 4.50565 3.17752 2.32812 5.86364 2.32812ZM8.84591 4.32812H5.86364C4.28209 4.32812 3 5.61022 3 7.19176V15.4281C3 17.085 4.34315 18.4281 6 18.4281H9.27273C9.47713 18.4281 9.67663 18.4908 9.84435 18.6076L11.4284 19.7111C11.7719 19.9505 12.2281 19.9505 12.5716 19.7111L14.1556 18.6076C14.3234 18.4908 14.5229 18.4281 14.7273 18.4281H18C19.6569 18.4281 21 17.085 21 15.4281V7.19176C21 5.61022 19.7179 4.32812 18.1364 4.32812H15.1541C14.7705 4.32812 14.395 4.43845 14.0723 4.64594L13.0818 5.28293C12.4228 5.70667 11.5772 5.70667 10.9182 5.28293L9.92769 4.64594C9.60504 4.43845 9.22952 4.32812 8.84591 4.32812Z" fill="#888A9C"/>
<path d="M12 3.82812C12.5128 3.82812 12.9355 4.21417 12.9933 4.7115L13 4.82812V9.32812C13 9.88041 12.5523 10.3281 12 10.3281C11.4872 10.3281 11.0645 9.94208 11.0067 9.44475L11 9.32812V4.82812C11 4.27584 11.4477 3.82812 12 3.82812Z" fill="#888A9C"/>
</svg>
