<svg width="24" height="25" viewBox="0 0 24 25" fill="none" xmlns="http://www.w3.org/2000/svg">
<rect opacity="0.01" y="0.328125" width="24" height="24" fill="#D8D8D8"/>
<path d="M8.84591 2.32812H5.86364C3.17752 2.32813 1 4.50565 1 7.19176V15.4281L1.00462 15.645C1.11818 18.3058 3.31125 20.4281 6 20.4281L8.958 20.4271L10.2851 21.3522L10.4599 21.4652C11.4667 22.0679 12.7416 22.0302 13.7149 21.3522L15.041 20.4271L18 20.4281C20.7614 20.4281 23 18.1895 23 15.4281V7.19176C23 4.50565 20.8225 2.32812 18.1364 2.32812H15.1541C14.3869 2.32813 13.6358 2.54877 12.9905 2.96375L12 3.60074L11.0095 2.96375C10.3642 2.54877 9.61313 2.32812 8.84591 2.32812Z" fill="#007EF2"/>
<mask id="mask0_1031_3081" style="mask-type:luminance" maskUnits="userSpaceOnUse" x="1" y="2" width="22" height="20">
<path d="M8.84591 2.32812H5.86364C3.17752 2.32813 1 4.50565 1 7.19176V15.4281L1.00462 15.645C1.11818 18.3058 3.31125 20.4281 6 20.4281L8.958 20.4271L10.2851 21.3522L10.4599 21.4652C11.4667 22.0679 12.7416 22.0302 13.7149 21.3522L15.041 20.4271L18 20.4281C20.7614 20.4281 23 18.1895 23 15.4281V7.19176C23 4.50565 20.8225 2.32812 18.1364 2.32812H15.1541C14.3869 2.32813 13.6358 2.54877 12.9905 2.96375L12 3.60074L11.0095 2.96375C10.3642 2.54877 9.61313 2.32812 8.84591 2.32812Z" fill="white"/>
</mask>
<g mask="url(#mask0_1031_3081)">
<path d="M12 2.82813V9.32812" stroke="white" stroke-width="2" stroke-linecap="round"/>
</g>
</svg>
