<svg width="41" height="40" viewBox="0 0 41 40" fill="none" xmlns="http://www.w3.org/2000/svg">
<g id="qq">
<circle id="&#230;&#164;&#173;&#229;&#156;&#134;&#229;&#189;&#162;" cx="20.5" cy="20" r="20" fill="#56B8FC" fill-opacity="0.1"/>
<path id="&#232;&#183;&#175;&#229;&#190;&#132;" d="M20.5893 28.977C20.8669 28.9829 21.1439 29.0027 21.4194 29.0364C21.608 29.0562 21.7932 29.076 21.9817 29.0859C23.0433 29.142 24.1016 29.1321 24.9019 29.1189C25.3338 29.1232 25.765 29.0822 26.1884 28.9968H26.238C26.2901 28.9882 26.3411 28.9738 26.3901 28.9539C26.3901 28.9374 26.367 28.9011 26.2545 28.7955C25.9111 28.5862 25.5517 28.4042 25.1797 28.251C24.9217 28.1652 24.72 28.0959 24.6704 27.8682C24.6208 27.6405 24.7663 27.4953 24.9581 27.3138C25.8131 26.5117 26.3665 25.4412 26.5257 24.2811C26.5257 24.2118 26.5422 24.1458 26.5489 24.0732L26.6249 23.4131L27.0648 23.6771C27.1646 23.7383 27.2476 23.8234 27.3062 23.9247L27.326 23.9577C27.5873 24.357 27.8122 24.687 28.0602 24.9972L28.0999 25.0467C28.2126 25.1965 28.3376 25.3367 28.4736 25.4658C28.5088 25.1919 28.5088 24.9147 28.4736 24.6408C28.3711 23.7422 28.1727 22.8572 27.8817 22.0007C27.5873 21.0767 27.2202 20.1593 26.8564 19.2716C26.7341 18.9713 26.6117 18.6677 26.4926 18.3674C26.4168 18.1639 26.382 17.9474 26.3901 17.7305C26.4047 17.1796 26.3826 16.6284 26.324 16.0804C26.2199 14.9057 25.8731 13.7652 25.3054 12.7309C24.6761 11.5532 23.6065 10.6708 22.3289 10.2756C21.44 10.002 20.5008 9.93091 19.5807 10.0677C18.4341 10.1998 17.3686 10.7232 16.5645 11.5495C15.7939 12.3713 15.2453 13.3752 14.9705 14.4667C14.6815 15.5419 14.5555 16.6543 14.5967 17.7668C14.6027 17.9734 14.5655 18.1791 14.4876 18.3707C14.3719 18.6677 14.2495 18.9647 14.1304 19.2617C13.6777 20.3248 13.2814 21.4109 12.9432 22.5155C12.6584 23.3966 12.509 24.3156 12.5 25.2414C12.5023 25.3166 12.5101 25.3916 12.5232 25.4658L12.5562 25.4328C12.9568 24.9932 13.3165 24.5182 13.6311 24.0138L13.6674 23.9577C13.7299 23.8389 13.8252 23.7404 13.9419 23.6738L14.3553 23.4461L14.4347 23.9544C14.4369 23.9884 14.4369 24.0226 14.4347 24.0567C14.4837 24.7296 14.679 25.3839 15.0068 25.974C15.2983 26.5148 15.6809 27.0015 16.1379 27.4128C16.3337 27.5335 16.3943 27.7898 16.2733 27.9851C16.208 28.0906 16.0989 28.1615 15.9758 28.1784C15.4894 28.3597 15.0299 28.6061 14.61 28.911C14.6085 28.9242 14.6085 28.9375 14.61 28.9506C14.6276 28.9486 14.6453 28.9486 14.6629 28.9506C14.9183 29.0171 15.1798 29.058 15.4434 29.0727C16.1577 29.1222 16.8952 29.1156 17.6063 29.109H18.0296C18.4297 29.109 18.8365 29.0859 19.1805 29.0661L19.6699 29.0232C19.9709 29.0067 20.2785 28.977 20.5893 28.977Z" fill="#56B8FC"/>
</g>
</svg>
