<svg width="40" height="40" viewBox="0 0 40 40" fill="none" xmlns="http://www.w3.org/2000/svg">
<g id="&#229;&#184;&#144;&#229;&#143;&#183;">
<circle id="&#230;&#164;&#173;&#229;&#156;&#134;&#229;&#189;&#162;" cx="20" cy="20" r="20" fill="#387EF5" fill-opacity="0.1"/>
<path id="&#229;&#189;&#162;&#231;&#138;&#182;" fill-rule="evenodd" clip-rule="evenodd" d="M15.1951 10H25.8049C27.0168 10 28 10.814 28 11.7907V28.2093C28 29.186 27.0168 30 25.8049 30H15.1951C13.9832 30 13 29.186 13 28.2093V11.7907C13 10.814 13.9832 10 15.1951 10ZM25.8049 28.9535C26.3079 28.9535 26.7195 28.6047 26.7195 28.2093V11.7907C26.7195 11.3721 26.3079 11.0465 25.8049 11.0465H15.1951C14.6921 11.0465 14.2805 11.3953 14.2805 11.7907V28.2093C14.2805 28.6279 14.6921 28.9535 15.1951 28.9535H25.8049Z" fill="#387EF5"/>
<path id="&#232;&#183;&#175;&#229;&#190;&#132;" d="M16 13H25V25H16V13Z" fill="#387EF5"/>
<path id="&#232;&#183;&#175;&#229;&#190;&#132;_2" d="M19.1765 27.3235C19.1765 28.0545 19.7691 28.6471 20.5 28.6471C21.231 28.6471 21.8236 28.0545 21.8236 27.3235C21.8236 26.8507 21.5713 26.4137 21.1618 26.1773C20.7523 25.9409 20.2478 25.9409 19.8383 26.1773C19.4288 26.4137 19.1765 26.8507 19.1765 27.3235Z" fill="#387EF5"/>
</g>
</svg>
