<svg width="18" height="21" viewBox="0 0 18 21" fill="none" xmlns="http://www.w3.org/2000/svg">
<path d="M17.2905 18.1528L16.0967 4.61227C16.0712 4.31166 15.8196 4.08405 15.5255 4.08405H13.0697C13.0356 1.82515 11.2024 0 8.95133 0C6.70027 0 4.86702 1.82515 4.83291 4.08405H2.37721C2.07877 4.08405 1.8315 4.31166 1.80592 4.61227L0.612174 18.1528C0.612174 18.1699 0.60791 18.1871 0.60791 18.2043C0.60791 19.746 2.01056 21 3.73723 21H14.1654C15.8921 21 17.2948 19.746 17.2948 18.2043C17.2948 18.1871 17.2948 18.1699 17.2905 18.1528ZM8.95133 1.15951C10.5671 1.15951 11.8845 2.46503 11.9186 4.08405H5.98402C6.01813 2.46503 7.33551 1.15951 8.95133 1.15951ZM14.1654 19.8405H3.73723C2.65433 19.8405 1.77607 19.119 1.75902 18.2301L2.9016 5.24785H4.82865V7.00859C4.82865 7.33067 5.08445 7.58834 5.4042 7.58834C5.72396 7.58834 5.97976 7.33067 5.97976 7.00859V5.24785H11.9186V7.00859C11.9186 7.33067 12.1744 7.58834 12.4942 7.58834C12.8139 7.58834 13.0697 7.33067 13.0697 7.00859V5.24785H14.9968L16.1436 18.2301C16.1266 19.119 15.2441 19.8405 14.1654 19.8405Z" fill="white"/>
</svg>
