<svg width="24" height="24" viewBox="0 0 24 24" fill="none" xmlns="http://www.w3.org/2000/svg">
<g id="ic_signup_wechat">
<rect id="&#231;&#159;&#169;&#229;&#189;&#162;" opacity="0.01" width="24" height="24" fill="#D8D8D8"/>
<path id="Fill 1" fill-rule="evenodd" clip-rule="evenodd" d="M23 15.5421C23 12.4153 20.0265 9.86617 16.6866 9.86617C13.1503 9.86617 10.3649 12.4153 10.3649 15.5421C10.3649 18.6743 13.1503 21.2177 16.6866 21.2177C17.4268 21.2177 18.1734 21.0211 18.9169 20.825L20.9556 22L20.3966 20.0454C21.8885 18.8679 23 17.306 23 15.5421ZM14.6371 14.5629C14.267 14.5629 13.8936 14.1764 13.8936 13.7808C13.8936 13.3908 14.267 12.9985 14.6371 12.9985C15.1992 12.9985 15.5674 13.3908 15.5674 13.7808C15.5674 14.1764 15.1992 14.5629 14.6371 14.5629ZM18.7253 14.5629C18.3579 14.5629 17.9871 14.1764 17.9871 13.7808C17.9871 13.3908 18.3579 12.9985 18.7253 12.9985C19.2824 12.9985 19.6557 13.3908 19.6557 13.7808C19.6557 14.1764 19.2824 14.5629 18.7253 14.5629ZM16.2163 9.44651C16.4573 9.44651 16.6956 9.46475 16.9321 9.49236C16.2889 6.34124 13.0873 4 9.43263 4C5.34681 4 2 6.92997 2 10.6512C2 12.7998 3.1134 14.5629 4.97425 15.9315L4.2309 18.2842L6.82917 16.9133C7.75895 17.1066 8.50489 17.306 9.43263 17.306C9.66596 17.306 9.89718 17.2937 10.1266 17.2748C9.98143 16.7523 9.89718 16.2047 9.89718 15.636C9.89718 12.2192 12.6857 9.44651 16.2163 9.44651ZM12.2198 7.32569C12.7795 7.32569 13.1503 7.71277 13.1503 8.30109C13.1503 8.88793 12.7795 9.28028 12.2198 9.28028C11.6628 9.28028 11.1038 8.88793 11.1038 8.30109C11.1038 7.71277 11.6628 7.32569 12.2198 7.32569ZM7.01811 9.28028C6.461 9.28028 5.89879 8.88793 5.89879 8.30109C5.89879 7.71277 6.461 7.32569 7.01811 7.32569C7.57511 7.32569 7.94588 7.71277 7.94588 8.30109C7.94588 8.88793 7.57511 9.28028 7.01811 9.28028Z" fill="#292F51"/>
</g>
</svg>
